{
    "asset" : {
        "generator" : "Khronos glTF Blender I/O v1.7.33",
        "version" : "2.0"
    },
    "scene" : 0,
    "scenes" : [
        {
            "name" : "Scene",
            "nodes" : [
                1,
                2,
                3,
                4,
                5,
                6,
                7,
                8,
                9
            ]
        }
    ],
    "nodes" : [
        {
            "camera" : 0,
            "name" : "Camera",
            "rotation" : [
                -0.7071067690849304,
                0,
                0,
                0.7071067690849304
            ]
        },
        {
            "children" : [
                0
            ],
            "name" : "Camera",
            "rotation" : [
                0.483536034822464,
                0.33687159419059753,
                -0.20870360732078552,
                0.7804827094078064
            ],
            "translation" : [
                7.358891487121582,
                4.958309173583984,
                6.925790786743164
            ]
        },
        {
            "mesh" : 0,
            "name" : "Cone",
            "scale" : [
                2.5335566997528076,
                0.20595359802246094,
                2.486947774887085
            ]
        },
        {
            "mesh" : 1,
            "name" : "Cylinder",
            "scale" : [
                0.3785279095172882,
                0.42250490188598633,
                0.3794002830982208
            ],
            "translation" : [
                0,
                0.517870306968689,
                0
            ]
        },
        {
            "mesh" : 2,
            "name" : "Cube",
            "scale" : [
                1.0066698789596558,
                0.8443272709846497,
                0.9281787872314453
            ],
            "translation" : [
                0,
                1.8144569396972656,
                0
            ]
        },
        {
            "mesh" : 3,
            "name" : "Cylinder.001",
            "rotation" : [
                0.64971923828125,
                0.2771759331226349,
                -0.276347279548645,
                0.6516675353050232
            ],
            "scale" : [
                0.1389206051826477,
                0.528386116027832,
                0.14995664358139038
            ],
            "translation" : [
                0,
                1.9757434129714966,
                0.9837820529937744
            ]
        },
        {
            "mesh" : 4,
            "name" : "Cylinder.002",
            "rotation" : [
                0.645167887210846,
                -0.2876724302768707,
                0.2868123948574066,
                0.6471024751663208
            ],
            "scale" : [
                0.13962452113628387,
                0.5307610034942627,
                0.15644867718219757
            ],
            "translation" : [
                0,
                1.9757434129714966,
                -0.948603093624115
            ]
        },
        {
            "mesh" : 5,
            "name" : "Cylinder.003",
            "rotation" : [
                0.49971461296081543,
                -0.5002824664115906,
                0.4987867772579193,
                0.5012130737304688
            ],
            "scale" : [
                0.1389206051826477,
                0.528386116027832,
                0.14995664358139038
            ],
            "translation" : [
                0.9166184663772583,
                1.9738729000091553,
                -1.3108617067337036
            ]
        },
        {
            "mesh" : 6,
            "name" : "Cylinder.004",
            "rotation" : [
                0.49971461296081543,
                -0.5002824664115906,
                0.4987867772579193,
                0.5012130737304688
            ],
            "scale" : [
                0.1334715634584427,
                0.5283855199813843,
                0.13563787937164307
            ],
            "translation" : [
                0.8924983739852905,
                1.9738729000091553,
                1.348554253578186
            ]
        },
        {
            "mesh" : 7,
            "name" : "Cylinder.005",
            "rotation" : [
                0.49971461296081543,
                -0.5002824664115906,
                0.4987867772579193,
                0.5012130737304688
            ],
            "scale" : [
                0.1389217972755432,
                1.2913812398910522,
                0.1499599814414978
            ],
            "translation" : [
                0.8800879716873169,
                1.9738729000091553,
                0.04790949821472168
            ]
        }
    ],
    "cameras" : [
        {
            "name" : "Camera",
            "perspective" : {
                "aspectRatio" : 1.7777777777777777,
                "yfov" : 0.39959652046304894,
                "zfar" : 100,
                "znear" : 0.10000000149011612
            },
            "type" : "perspective"
        }
    ],
    "materials" : [
        {
            "doubleSided" : true,
            "name" : "Material.001",
            "pbrMetallicRoughness" : {
                "baseColorTexture" : {
                    "index" : 0
                },
                "metallicFactor" : 0,
                "roughnessFactor" : 0.5
            }
        },
        {
            "doubleSided" : true,
            "name" : "Material.002",
            "pbrMetallicRoughness" : {
                "baseColorTexture" : {
                    "index" : 1
                },
                "metallicFactor" : 0,
                "roughnessFactor" : 0.5
            }
        },
        {
            "doubleSided" : true,
            "name" : "Material.003",
            "pbrMetallicRoughness" : {
                "baseColorTexture" : {
                    "index" : 2
                },
                "metallicFactor" : 0,
                "roughnessFactor" : 0.5
            }
        },
        {
            "doubleSided" : true,
            "name" : "Material.004",
            "pbrMetallicRoughness" : {
                "baseColorTexture" : {
                    "index" : 3
                },
                "metallicFactor" : 0,
                "roughnessFactor" : 0.5
            }
        }
    ],
    "meshes" : [
        {
            "name" : "Cone",
            "primitives" : [
                {
                    "attributes" : {
                        "POSITION" : 0,
                        "NORMAL" : 1,
                        "TEXCOORD_0" : 2
                    },
                    "indices" : 3,
                    "material" : 0
                }
            ]
        },
        {
            "name" : "Cylinder",
            "primitives" : [
                {
                    "attributes" : {
                        "POSITION" : 4,
                        "NORMAL" : 5,
                        "TEXCOORD_0" : 6
                    },
                    "indices" : 7,
                    "material" : 1
                }
            ]
        },
        {
            "name" : "Cube.001",
            "primitives" : [
                {
                    "attributes" : {
                        "POSITION" : 8,
                        "NORMAL" : 9,
                        "TEXCOORD_0" : 10
                    },
                    "indices" : 11,
                    "material" : 2
                }
            ]
        },
        {
            "name" : "Cylinder.001",
            "primitives" : [
                {
                    "attributes" : {
                        "POSITION" : 12,
                        "NORMAL" : 13,
                        "TEXCOORD_0" : 14
                    },
                    "indices" : 15,
                    "material" : 3
                }
            ]
        },
        {
            "name" : "Cylinder.002",
            "primitives" : [
                {
                    "attributes" : {
                        "POSITION" : 16,
                        "NORMAL" : 17,
                        "TEXCOORD_0" : 18
                    },
                    "indices" : 19,
                    "material" : 3
                }
            ]
        },
        {
            "name" : "Cylinder.003",
            "primitives" : [
                {
                    "attributes" : {
                        "POSITION" : 20,
                        "NORMAL" : 21,
                        "TEXCOORD_0" : 22
                    },
                    "indices" : 7,
                    "material" : 3
                }
            ]
        },
        {
            "name" : "Cylinder.004",
            "primitives" : [
                {
                    "attributes" : {
                        "POSITION" : 23,
                        "NORMAL" : 24,
                        "TEXCOORD_0" : 25
                    },
                    "indices" : 7,
                    "material" : 3
                }
            ]
        },
        {
            "name" : "Cylinder.005",
            "primitives" : [
                {
                    "attributes" : {
                        "POSITION" : 26,
                        "NORMAL" : 27,
                        "TEXCOORD_0" : 28
                    },
                    "indices" : 29,
                    "material" : 3
                }
            ]
        }
    ],
    "textures" : [
        {
            "sampler" : 0,
            "source" : 0
        },
        {
            "sampler" : 0,
            "source" : 1
        },
        {
            "sampler" : 0,
            "source" : 2
        },
        {
            "sampler" : 0,
            "source" : 3
        }
    ],
    "images" : [
        {
            "mimeType" : "image/png",
            "name" : "Untitled",
            "uri" : "Untitled.png"
        },
        {
            "mimeType" : "image/png",
            "name" : "Untitled",
            "uri" : "Untitled-1.png"
        },
        {
            "mimeType" : "image/png",
            "name" : "Untitled",
            "uri" : "Untitled-2.png"
        },
        {
            "mimeType" : "image/png",
            "name" : "Untitled",
            "uri" : "Untitled-3.png"
        }
    ],
    "accessors" : [
        {
            "bufferView" : 0,
            "componentType" : 5126,
            "count" : 128,
            "max" : [
                1,
                1,
                1
            ],
            "min" : [
                -1,
                -1,
                -1
            ],
            "type" : "VEC3"
        },
        {
            "bufferView" : 1,
            "componentType" : 5126,
            "count" : 128,
            "type" : "VEC3"
        },
        {
            "bufferView" : 2,
            "componentType" : 5126,
            "count" : 128,
            "type" : "VEC2"
        },
        {
            "bufferView" : 3,
            "componentType" : 5123,
            "count" : 186,
            "type" : "SCALAR"
        },
        {
            "bufferView" : 4,
            "componentType" : 5126,
            "count" : 192,
            "max" : [
                1,
                0.9999995231628418,
                1
            ],
            "min" : [
                -1,
                -1,
                -1
            ],
            "type" : "VEC3"
        },
        {
            "bufferView" : 5,
            "componentType" : 5126,
            "count" : 192,
            "type" : "VEC3"
        },
        {
            "bufferView" : 6,
            "componentType" : 5126,
            "count" : 192,
            "type" : "VEC2"
        },
        {
            "bufferView" : 7,
            "componentType" : 5123,
            "count" : 372,
            "type" : "SCALAR"
        },
        {
            "bufferView" : 8,
            "componentType" : 5126,
            "count" : 70,
            "max" : [
                1,
                1,
                1
            ],
            "min" : [
                -1,
                -1,
                -1
            ],
            "type" : "VEC3"
        },
        {
            "bufferView" : 9,
            "componentType" : 5126,
            "count" : 70,
            "type" : "VEC3"
        },
        {
            "bufferView" : 10,
            "componentType" : 5126,
            "count" : 70,
            "type" : "VEC2"
        },
        {
            "bufferView" : 11,
            "componentType" : 5123,
            "count" : 108,
            "type" : "SCALAR"
        },
        {
            "bufferView" : 12,
            "componentType" : 5126,
            "count" : 192,
            "max" : [
                1,
                1.1724575757980347,
                1
            ],
            "min" : [
                -1,
                -1,
                -1
            ],
            "type" : "VEC3"
        },
        {
            "bufferView" : 13,
            "componentType" : 5126,
            "count" : 192,
            "type" : "VEC3"
        },
        {
            "bufferView" : 14,
            "componentType" : 5126,
            "count" : 192,
            "type" : "VEC2"
        },
        {
            "bufferView" : 15,
            "componentType" : 5123,
            "count" : 372,
            "type" : "SCALAR"
        },
        {
            "bufferView" : 16,
            "componentType" : 5126,
            "count" : 192,
            "max" : [
                1,
                1,
                1
            ],
            "min" : [
                -1,
                -1.1716777086257935,
                -1
            ],
            "type" : "VEC3"
        },
        {
            "bufferView" : 17,
            "componentType" : 5126,
            "count" : 192,
            "type" : "VEC3"
        },
        {
            "bufferView" : 18,
            "componentType" : 5126,
            "count" : 192,
            "type" : "VEC2"
        },
        {
            "bufferView" : 19,
            "componentType" : 5123,
            "count" : 372,
            "type" : "SCALAR"
        },
        {
            "bufferView" : 20,
            "componentType" : 5126,
            "count" : 192,
            "max" : [
                1.3723504543304443,
                1,
                1.3907575607299805
            ],
            "min" : [
                -1.3723509311676025,
                -1.0000379085540771,
                -1.390758752822876
            ],
            "type" : "VEC3"
        },
        {
            "bufferView" : 21,
            "componentType" : 5126,
            "count" : 192,
            "type" : "VEC3"
        },
        {
            "bufferView" : 22,
            "componentType" : 5126,
            "count" : 192,
            "type" : "VEC2"
        },
        {
            "bufferView" : 23,
            "componentType" : 5126,
            "count" : 192,
            "max" : [
                1.5629700422286987,
                1,
                1.5629690885543823
            ],
            "min" : [
                -1.5629712343215942,
                -0.9999998807907104,
                -1.5629724264144897
            ],
            "type" : "VEC3"
        },
        {
            "bufferView" : 24,
            "componentType" : 5126,
            "count" : 192,
            "type" : "VEC3"
        },
        {
            "bufferView" : 25,
            "componentType" : 5126,
            "count" : 192,
            "type" : "VEC2"
        },
        {
            "bufferView" : 26,
            "componentType" : 5126,
            "count" : 320,
            "max" : [
                1.8968676328659058,
                1,
                1.8968678712844849
            ],
            "min" : [
                -1.8968678712844849,
                -0.9999998807907104,
                -1.8968678712844849
            ],
            "type" : "VEC3"
        },
        {
            "bufferView" : 27,
            "componentType" : 5126,
            "count" : 320,
            "type" : "VEC3"
        },
        {
            "bufferView" : 28,
            "componentType" : 5126,
            "count" : 320,
            "type" : "VEC2"
        },
        {
            "bufferView" : 29,
            "componentType" : 5123,
            "count" : 564,
            "type" : "SCALAR"
        }
    ],
    "bufferViews" : [
        {
            "buffer" : 0,
            "byteLength" : 1536,
            "byteOffset" : 0
        },
        {
            "buffer" : 0,
            "byteLength" : 1536,
            "byteOffset" : 1536
        },
        {
            "buffer" : 0,
            "byteLength" : 1024,
            "byteOffset" : 3072
        },
        {
            "buffer" : 0,
            "byteLength" : 372,
            "byteOffset" : 4096
        },
        {
            "buffer" : 0,
            "byteLength" : 2304,
            "byteOffset" : 4468
        },
        {
            "buffer" : 0,
            "byteLength" : 2304,
            "byteOffset" : 6772
        },
        {
            "buffer" : 0,
            "byteLength" : 1536,
            "byteOffset" : 9076
        },
        {
            "buffer" : 0,
            "byteLength" : 744,
            "byteOffset" : 10612
        },
        {
            "buffer" : 0,
            "byteLength" : 840,
            "byteOffset" : 11356
        },
        {
            "buffer" : 0,
            "byteLength" : 840,
            "byteOffset" : 12196
        },
        {
            "buffer" : 0,
            "byteLength" : 560,
            "byteOffset" : 13036
        },
        {
            "buffer" : 0,
            "byteLength" : 216,
            "byteOffset" : 13596
        },
        {
            "buffer" : 0,
            "byteLength" : 2304,
            "byteOffset" : 13812
        },
        {
            "buffer" : 0,
            "byteLength" : 2304,
            "byteOffset" : 16116
        },
        {
            "buffer" : 0,
            "byteLength" : 1536,
            "byteOffset" : 18420
        },
        {
            "buffer" : 0,
            "byteLength" : 744,
            "byteOffset" : 19956
        },
        {
            "buffer" : 0,
            "byteLength" : 2304,
            "byteOffset" : 20700
        },
        {
            "buffer" : 0,
            "byteLength" : 2304,
            "byteOffset" : 23004
        },
        {
            "buffer" : 0,
            "byteLength" : 1536,
            "byteOffset" : 25308
        },
        {
            "buffer" : 0,
            "byteLength" : 744,
            "byteOffset" : 26844
        },
        {
            "buffer" : 0,
            "byteLength" : 2304,
            "byteOffset" : 27588
        },
        {
            "buffer" : 0,
            "byteLength" : 2304,
            "byteOffset" : 29892
        },
        {
            "buffer" : 0,
            "byteLength" : 1536,
            "byteOffset" : 32196
        },
        {
            "buffer" : 0,
            "byteLength" : 2304,
            "byteOffset" : 33732
        },
        {
            "buffer" : 0,
            "byteLength" : 2304,
            "byteOffset" : 36036
        },
        {
            "buffer" : 0,
            "byteLength" : 1536,
            "byteOffset" : 38340
        },
        {
            "buffer" : 0,
            "byteLength" : 3840,
            "byteOffset" : 39876
        },
        {
            "buffer" : 0,
            "byteLength" : 3840,
            "byteOffset" : 43716
        },
        {
            "buffer" : 0,
            "byteLength" : 2560,
            "byteOffset" : 47556
        },
        {
            "buffer" : 0,
            "byteLength" : 1128,
            "byteOffset" : 50116
        }
    ],
    "samplers" : [
        {
            "magFilter" : 9729,
            "minFilter" : 9987
        }
    ],
    "buffers" : [
        {
            "byteLength" : 51244,
            "uri" : "cannon3.bin"
        }
    ]
}
