{
    "asset" : {
        "generator" : "Khronos glTF Blender I/O v1.7.33",
        "version" : "2.0"
    },
    "scene" : 0,
    "scenes" : [
        {
            "name" : "Scene",
            "nodes" : [
                1,
                2,
                3,
                4,
                5,
                6,
                7,
                8
            ]
        }
    ],
    "nodes" : [
        {
            "camera" : 0,
            "name" : "Camera",
            "rotation" : [
                -0.7071067690849304,
                0,
                0,
                0.7071067690849304
            ]
        },
        {
            "children" : [
                0
            ],
            "name" : "Camera",
            "rotation" : [
                0.483536034822464,
                0.33687159419059753,
                -0.20870360732078552,
                0.7804827094078064
            ],
            "translation" : [
                7.358891487121582,
                4.958309173583984,
                6.925790786743164
            ]
        },
        {
            "name" : "Plane"
        },
        {
            "mesh" : 0,
            "name" : "Icosphere",
            "scale" : [
                1.1595200300216675,
                1.2689110040664673,
                1.1799768209457397
            ],
            "translation" : [
                6.150625705718994,
                4.981526851654053,
                2.4265682697296143
            ]
        },
        {
            "mesh" : 1,
            "name" : "Icosphere.001",
            "scale" : [
                1.5981756448745728,
                1.58128023147583,
                1.5337496995925903
            ],
            "translation" : [
                4.938688278198242,
                5.463737487792969,
                0.7509623765945435
            ]
        },
        {
            "mesh" : 2,
            "name" : "Icosphere.002",
            "scale" : [
                1.7251132726669312,
                1.360110878944397,
                1.7382245063781738
            ],
            "translation" : [
                -0.08899274468421936,
                4.3153395652771,
                4.037569999694824
            ]
        },
        {
            "mesh" : 3,
            "name" : "Icosphere.003",
            "scale" : [
                2.0747597217559814,
                1.9475027322769165,
                1.8921300172805786
            ],
            "translation" : [
                2.997804641723633,
                3.8857905864715576,
                4.262253761291504
            ]
        },
        {
            "mesh" : 4,
            "name" : "Icosphere.004",
            "scale" : [
                1.443466067314148,
                1.443466067314148,
                1.443466067314148
            ],
            "translation" : [
                0.151470348238945,
                3.6237096786499023,
                -1.1641464233398438
            ]
        },
        {
            "mesh" : 5,
            "name" : "Icosphere.005",
            "scale" : [
                1.7297276258468628,
                1.6653099060058594,
                1.7663694620132446
            ],
            "translation" : [
                3.2059082984924316,
                4.041985034942627,
                -1.2293527126312256
            ]
        }
    ],
    "cameras" : [
        {
            "name" : "Camera",
            "perspective" : {
                "aspectRatio" : 1.7777777777777777,
                "yfov" : 0.39959652046304894,
                "zfar" : 100,
                "znear" : 0.10000000149011612
            },
            "type" : "perspective"
        }
    ],
    "materials" : [
        {
            "doubleSided" : true,
            "name" : "Material.002",
            "pbrMetallicRoughness" : {
                "baseColorTexture" : {
                    "index" : 0
                },
                "metallicFactor" : 0,
                "roughnessFactor" : 0.5
            }
        }
    ],
    "meshes" : [
        {
            "name" : "Icosphere",
            "primitives" : [
                {
                    "attributes" : {
                        "POSITION" : 0,
                        "NORMAL" : 1,
                        "TEXCOORD_0" : 2
                    },
                    "indices" : 3,
                    "material" : 0
                }
            ]
        },
        {
            "name" : "Icosphere.001",
            "primitives" : [
                {
                    "attributes" : {
                        "POSITION" : 4,
                        "NORMAL" : 5,
                        "TEXCOORD_0" : 6
                    },
                    "indices" : 7,
                    "material" : 0
                }
            ]
        },
        {
            "name" : "Icosphere.002",
            "primitives" : [
                {
                    "attributes" : {
                        "POSITION" : 8,
                        "NORMAL" : 9,
                        "TEXCOORD_0" : 10
                    },
                    "indices" : 11,
                    "material" : 0
                }
            ]
        },
        {
            "name" : "Icosphere.003",
            "primitives" : [
                {
                    "attributes" : {
                        "POSITION" : 12,
                        "NORMAL" : 13,
                        "TEXCOORD_0" : 14
                    },
                    "indices" : 7,
                    "material" : 0
                }
            ]
        },
        {
            "name" : "Icosphere.004",
            "primitives" : [
                {
                    "attributes" : {
                        "POSITION" : 15,
                        "NORMAL" : 16,
                        "TEXCOORD_0" : 17
                    },
                    "indices" : 7,
                    "material" : 0
                }
            ]
        },
        {
            "name" : "Icosphere.005",
            "primitives" : [
                {
                    "attributes" : {
                        "POSITION" : 18,
                        "NORMAL" : 19,
                        "TEXCOORD_0" : 20
                    },
                    "indices" : 3,
                    "material" : 0
                }
            ]
        }
    ],
    "textures" : [
        {
            "sampler" : 0,
            "source" : 0
        }
    ],
    "images" : [
        {
            "mimeType" : "image/png",
            "name" : "Untitled",
            "uri" : "Untitled.png"
        }
    ],
    "accessors" : [
        {
            "bufferView" : 0,
            "componentType" : 5126,
            "count" : 240,
            "max" : [
                -0.04366731643676758,
                2.269784688949585,
                0.769805908203125
            ],
            "min" : [
                -1.9662721157073975,
                0.2889862656593323,
                -1.257293462753296
            ],
            "type" : "VEC3"
        },
        {
            "bufferView" : 1,
            "componentType" : 5126,
            "count" : 240,
            "type" : "VEC3"
        },
        {
            "bufferView" : 2,
            "componentType" : 5126,
            "count" : 240,
            "type" : "VEC2"
        },
        {
            "bufferView" : 3,
            "componentType" : 5123,
            "count" : 240,
            "type" : "SCALAR"
        },
        {
            "bufferView" : 4,
            "componentType" : 5126,
            "count" : 240,
            "max" : [
                -0.06047165393829346,
                2.3229124546051025,
                0.7320767641067505
            ],
            "min" : [
                -2.0117528438568115,
                0.27613937854766846,
                -1.2975484132766724
            ],
            "type" : "VEC3"
        },
        {
            "bufferView" : 5,
            "componentType" : 5126,
            "count" : 240,
            "type" : "VEC3"
        },
        {
            "bufferView" : 6,
            "componentType" : 5126,
            "count" : 240,
            "type" : "VEC2"
        },
        {
            "bufferView" : 7,
            "componentType" : 5123,
            "count" : 240,
            "type" : "SCALAR"
        },
        {
            "bufferView" : 8,
            "componentType" : 5126,
            "count" : 240,
            "max" : [
                -0.048974812030792236,
                2.3162734508514404,
                0.7583215236663818
            ],
            "min" : [
                -1.966578483581543,
                0.3564968705177307,
                -1.2455763816833496
            ],
            "type" : "VEC3"
        },
        {
            "bufferView" : 9,
            "componentType" : 5126,
            "count" : 240,
            "type" : "VEC3"
        },
        {
            "bufferView" : 10,
            "componentType" : 5126,
            "count" : 240,
            "type" : "VEC2"
        },
        {
            "bufferView" : 11,
            "componentType" : 5123,
            "count" : 240,
            "type" : "SCALAR"
        },
        {
            "bufferView" : 12,
            "componentType" : 5126,
            "count" : 240,
            "max" : [
                -0.06047165393829346,
                2.3229124546051025,
                0.7320767641067505
            ],
            "min" : [
                -2.0117528438568115,
                0.27613937854766846,
                -1.2975484132766724
            ],
            "type" : "VEC3"
        },
        {
            "bufferView" : 13,
            "componentType" : 5126,
            "count" : 240,
            "type" : "VEC3"
        },
        {
            "bufferView" : 14,
            "componentType" : 5126,
            "count" : 240,
            "type" : "VEC2"
        },
        {
            "bufferView" : 15,
            "componentType" : 5126,
            "count" : 240,
            "max" : [
                -0.06047165393829346,
                2.3229124546051025,
                0.7320767641067505
            ],
            "min" : [
                -2.0117528438568115,
                0.27613937854766846,
                -1.2975484132766724
            ],
            "type" : "VEC3"
        },
        {
            "bufferView" : 16,
            "componentType" : 5126,
            "count" : 240,
            "type" : "VEC3"
        },
        {
            "bufferView" : 17,
            "componentType" : 5126,
            "count" : 240,
            "type" : "VEC2"
        },
        {
            "bufferView" : 18,
            "componentType" : 5126,
            "count" : 240,
            "max" : [
                -0.04366731643676758,
                2.269784688949585,
                0.769805908203125
            ],
            "min" : [
                -1.9662721157073975,
                0.2889862656593323,
                -1.257293462753296
            ],
            "type" : "VEC3"
        },
        {
            "bufferView" : 19,
            "componentType" : 5126,
            "count" : 240,
            "type" : "VEC3"
        },
        {
            "bufferView" : 20,
            "componentType" : 5126,
            "count" : 240,
            "type" : "VEC2"
        }
    ],
    "bufferViews" : [
        {
            "buffer" : 0,
            "byteLength" : 2880,
            "byteOffset" : 0
        },
        {
            "buffer" : 0,
            "byteLength" : 2880,
            "byteOffset" : 2880
        },
        {
            "buffer" : 0,
            "byteLength" : 1920,
            "byteOffset" : 5760
        },
        {
            "buffer" : 0,
            "byteLength" : 480,
            "byteOffset" : 7680
        },
        {
            "buffer" : 0,
            "byteLength" : 2880,
            "byteOffset" : 8160
        },
        {
            "buffer" : 0,
            "byteLength" : 2880,
            "byteOffset" : 11040
        },
        {
            "buffer" : 0,
            "byteLength" : 1920,
            "byteOffset" : 13920
        },
        {
            "buffer" : 0,
            "byteLength" : 480,
            "byteOffset" : 15840
        },
        {
            "buffer" : 0,
            "byteLength" : 2880,
            "byteOffset" : 16320
        },
        {
            "buffer" : 0,
            "byteLength" : 2880,
            "byteOffset" : 19200
        },
        {
            "buffer" : 0,
            "byteLength" : 1920,
            "byteOffset" : 22080
        },
        {
            "buffer" : 0,
            "byteLength" : 480,
            "byteOffset" : 24000
        },
        {
            "buffer" : 0,
            "byteLength" : 2880,
            "byteOffset" : 24480
        },
        {
            "buffer" : 0,
            "byteLength" : 2880,
            "byteOffset" : 27360
        },
        {
            "buffer" : 0,
            "byteLength" : 1920,
            "byteOffset" : 30240
        },
        {
            "buffer" : 0,
            "byteLength" : 2880,
            "byteOffset" : 32160
        },
        {
            "buffer" : 0,
            "byteLength" : 2880,
            "byteOffset" : 35040
        },
        {
            "buffer" : 0,
            "byteLength" : 1920,
            "byteOffset" : 37920
        },
        {
            "buffer" : 0,
            "byteLength" : 2880,
            "byteOffset" : 39840
        },
        {
            "buffer" : 0,
            "byteLength" : 2880,
            "byteOffset" : 42720
        },
        {
            "buffer" : 0,
            "byteLength" : 1920,
            "byteOffset" : 45600
        }
    ],
    "samplers" : [
        {
            "magFilter" : 9729,
            "minFilter" : 9987
        }
    ],
    "buffers" : [
        {
            "byteLength" : 47520,
            "uri" : "drevo.bin"
        }
    ]
}
