{
    "asset" : {
        "generator" : "Khronos glTF Blender I/O v1.7.33",
        "version" : "2.0"
    },
    "scene" : 0,
    "scenes" : [
        {
            "name" : "Scene",
            "nodes" : [
                1,
                2,
                3,
                4,
                5,
                6,
                7
            ]
        }
    ],
    "nodes" : [
        {
            "camera" : 0,
            "name" : "Camera",
            "rotation" : [
                -0.7071067690849304,
                0,
                0,
                0.7071067690849304
            ]
        },
        {
            "children" : [
                0
            ],
            "name" : "Camera",
            "rotation" : [
                0.483536034822464,
                0.33687159419059753,
                -0.20870360732078552,
                0.7804827094078064
            ],
            "scale" : [
                0.12286945432424545,
                0.12286945432424545,
                0.12286944687366486
            ],
            "translation" : [
                1.2291570901870728,
                0.3150787353515625,
                0.5988935232162476
            ]
        },
        {
            "mesh" : 0,
            "name" : "Plane",
            "scale" : [
                -0.4238387644290924,
                -0.4238387644290924,
                -0.4238387644290924
            ],
            "translation" : [
                0.3249739408493042,
                -0.2941460609436035,
                -0.2520747780799866
            ]
        },
        {
            "mesh" : 1,
            "name" : "Cube",
            "scale" : [
                0.12286945432424545,
                0.07129062712192535,
                0.12286945432424545
            ],
            "translation" : [
                0.5780817270278931,
                -6.818771362304688e-05,
                -0.0014029741287231445
            ]
        },
        {
            "mesh" : 2,
            "name" : "Cube.002",
            "rotation" : [
                0,
                0.7034050226211548,
                0,
                0.7107892632484436
            ],
            "scale" : [
                0.08688364923000336,
                0.21457092463970184,
                0.07601691782474518
            ],
            "translation" : [
                0.006935238838195801,
                0.7016963958740234,
                -0.2512085437774658
            ]
        },
        {
            "mesh" : 3,
            "name" : "Cube.004",
            "rotation" : [
                0,
                -0.9999994039535522,
                0,
                0.0010805883212015033
            ],
            "scale" : [
                0.08688364923000336,
                0.21457092463970184,
                0.07601691782474518
            ],
            "translation" : [
                0.3256721496582031,
                0.6973381042480469,
                0.07874059677124023
            ]
        },
        {
            "mesh" : 4,
            "name" : "Cube.005",
            "rotation" : [
                0,
                -0.00785473920404911,
                0,
                0.9999692440032959
            ],
            "scale" : [
                0.08688364923000336,
                0.21457092463970184,
                0.07601691782474518
            ],
            "translation" : [
                0.3280463218688965,
                0.7022266387939453,
                -0.581936240196228
            ]
        },
        {
            "mesh" : 5,
            "name" : "Cube.001",
            "rotation" : [
                0,
                -0.6974765658378601,
                0,
                0.7166075706481934
            ],
            "scale" : [
                0.08688365668058395,
                0.21457092463970184,
                0.07601691782474518
            ],
            "translation" : [
                0.6497880220413208,
                0.6972146034240723,
                -0.2500268816947937
            ]
        }
    ],
    "cameras" : [
        {
            "name" : "Camera",
            "perspective" : {
                "aspectRatio" : 1.7777777777777777,
                "yfov" : 0.39959652046304894,
                "zfar" : 100,
                "znear" : 0.10000000149011612
            },
            "type" : "perspective"
        }
    ],
    "materials" : [
        {
            "doubleSided" : true,
            "name" : "Material",
            "pbrMetallicRoughness" : {
                "baseColorTexture" : {
                    "index" : 0
                },
                "metallicFactor" : 0,
                "roughnessFactor" : 0.4000000059604645
            }
        },
        {
            "doubleSided" : true,
            "name" : "Material.001",
            "pbrMetallicRoughness" : {
                "baseColorTexture" : {
                    "index" : 1
                },
                "metallicFactor" : 0,
                "roughnessFactor" : 0.5
            }
        },
        {
            "doubleSided" : true,
            "name" : "Material.004",
            "pbrMetallicRoughness" : {
                "baseColorFactor" : [
                    0.800000011920929,
                    0.800000011920929,
                    0.800000011920929,
                    1
                ],
                "metallicFactor" : 0,
                "roughnessFactor" : 0.5
            }
        }
    ],
    "meshes" : [
        {
            "name" : "Plane",
            "primitives" : [
                {
                    "attributes" : {
                        "POSITION" : 0,
                        "NORMAL" : 1,
                        "TEXCOORD_0" : 2
                    },
                    "indices" : 3,
                    "material" : 0
                }
            ]
        },
        {
            "name" : "Cube.006",
            "primitives" : [
                {
                    "attributes" : {
                        "POSITION" : 4,
                        "NORMAL" : 5,
                        "TEXCOORD_0" : 6
                    },
                    "indices" : 7,
                    "material" : 1
                }
            ]
        },
        {
            "name" : "Cube.008",
            "primitives" : [
                {
                    "attributes" : {
                        "POSITION" : 8,
                        "NORMAL" : 9,
                        "TEXCOORD_0" : 10
                    },
                    "indices" : 11,
                    "material" : 2
                }
            ]
        },
        {
            "name" : "Cube.010",
            "primitives" : [
                {
                    "attributes" : {
                        "POSITION" : 12,
                        "NORMAL" : 13,
                        "TEXCOORD_0" : 14
                    },
                    "indices" : 11,
                    "material" : 2
                }
            ]
        },
        {
            "name" : "Cube.011",
            "primitives" : [
                {
                    "attributes" : {
                        "POSITION" : 15,
                        "NORMAL" : 16,
                        "TEXCOORD_0" : 17
                    },
                    "indices" : 11,
                    "material" : 2
                }
            ]
        },
        {
            "name" : "Cube.012",
            "primitives" : [
                {
                    "attributes" : {
                        "POSITION" : 18,
                        "NORMAL" : 19,
                        "TEXCOORD_0" : 20
                    },
                    "indices" : 11,
                    "material" : 2
                }
            ]
        }
    ],
    "textures" : [
        {
            "sampler" : 0,
            "source" : 0
        },
        {
            "sampler" : 0,
            "source" : 1
        }
    ],
    "images" : [
        {
            "mimeType" : "image/png",
            "name" : "Untitled",
            "uri" : "Untitled.png"
        },
        {
            "mimeType" : "image/png",
            "name" : "Untitled",
            "uri" : "Untitled-1.png"
        }
    ],
    "accessors" : [
        {
            "bufferView" : 0,
            "componentType" : 5126,
            "count" : 3296,
            "max" : [
                1.0430152416229248,
                0,
                1.0430152416229248
            ],
            "min" : [
                -1.0430152416229248,
                -4.539294719696045,
                -1.0430152416229248
            ],
            "type" : "VEC3"
        },
        {
            "bufferView" : 1,
            "componentType" : 5126,
            "count" : 3296,
            "type" : "VEC3"
        },
        {
            "bufferView" : 2,
            "componentType" : 5126,
            "count" : 3296,
            "type" : "VEC2"
        },
        {
            "bufferView" : 3,
            "componentType" : 5123,
            "count" : 10002,
            "type" : "SCALAR"
        },
        {
            "bufferView" : 4,
            "componentType" : 5126,
            "count" : 185,
            "max" : [
                1,
                2.3655614852905273,
                1
            ],
            "min" : [
                -1,
                -1,
                -1
            ],
            "type" : "VEC3"
        },
        {
            "bufferView" : 5,
            "componentType" : 5126,
            "count" : 185,
            "type" : "VEC3"
        },
        {
            "bufferView" : 6,
            "componentType" : 5126,
            "count" : 185,
            "type" : "VEC2"
        },
        {
            "bufferView" : 7,
            "componentType" : 5123,
            "count" : 492,
            "type" : "SCALAR"
        },
        {
            "bufferView" : 8,
            "componentType" : 5126,
            "count" : 72,
            "max" : [
                1,
                1,
                1
            ],
            "min" : [
                -1,
                -1,
                -1.0023233890533447
            ],
            "type" : "VEC3"
        },
        {
            "bufferView" : 9,
            "componentType" : 5126,
            "count" : 72,
            "type" : "VEC3"
        },
        {
            "bufferView" : 10,
            "componentType" : 5126,
            "count" : 72,
            "type" : "VEC2"
        },
        {
            "bufferView" : 11,
            "componentType" : 5123,
            "count" : 132,
            "type" : "SCALAR"
        },
        {
            "bufferView" : 12,
            "componentType" : 5126,
            "count" : 72,
            "max" : [
                1,
                1,
                1
            ],
            "min" : [
                -1,
                -1,
                -1.0023233890533447
            ],
            "type" : "VEC3"
        },
        {
            "bufferView" : 13,
            "componentType" : 5126,
            "count" : 72,
            "type" : "VEC3"
        },
        {
            "bufferView" : 14,
            "componentType" : 5126,
            "count" : 72,
            "type" : "VEC2"
        },
        {
            "bufferView" : 15,
            "componentType" : 5126,
            "count" : 72,
            "max" : [
                1,
                1,
                1
            ],
            "min" : [
                -1,
                -1,
                -1.0023233890533447
            ],
            "type" : "VEC3"
        },
        {
            "bufferView" : 16,
            "componentType" : 5126,
            "count" : 72,
            "type" : "VEC3"
        },
        {
            "bufferView" : 17,
            "componentType" : 5126,
            "count" : 72,
            "type" : "VEC2"
        },
        {
            "bufferView" : 18,
            "componentType" : 5126,
            "count" : 72,
            "max" : [
                1,
                1,
                1
            ],
            "min" : [
                -1,
                -1,
                -1.0023233890533447
            ],
            "type" : "VEC3"
        },
        {
            "bufferView" : 19,
            "componentType" : 5126,
            "count" : 72,
            "type" : "VEC3"
        },
        {
            "bufferView" : 20,
            "componentType" : 5126,
            "count" : 72,
            "type" : "VEC2"
        }
    ],
    "bufferViews" : [
        {
            "buffer" : 0,
            "byteLength" : 39552,
            "byteOffset" : 0
        },
        {
            "buffer" : 0,
            "byteLength" : 39552,
            "byteOffset" : 39552
        },
        {
            "buffer" : 0,
            "byteLength" : 26368,
            "byteOffset" : 79104
        },
        {
            "buffer" : 0,
            "byteLength" : 20004,
            "byteOffset" : 105472
        },
        {
            "buffer" : 0,
            "byteLength" : 2220,
            "byteOffset" : 125476
        },
        {
            "buffer" : 0,
            "byteLength" : 2220,
            "byteOffset" : 127696
        },
        {
            "buffer" : 0,
            "byteLength" : 1480,
            "byteOffset" : 129916
        },
        {
            "buffer" : 0,
            "byteLength" : 984,
            "byteOffset" : 131396
        },
        {
            "buffer" : 0,
            "byteLength" : 864,
            "byteOffset" : 132380
        },
        {
            "buffer" : 0,
            "byteLength" : 864,
            "byteOffset" : 133244
        },
        {
            "buffer" : 0,
            "byteLength" : 576,
            "byteOffset" : 134108
        },
        {
            "buffer" : 0,
            "byteLength" : 264,
            "byteOffset" : 134684
        },
        {
            "buffer" : 0,
            "byteLength" : 864,
            "byteOffset" : 134948
        },
        {
            "buffer" : 0,
            "byteLength" : 864,
            "byteOffset" : 135812
        },
        {
            "buffer" : 0,
            "byteLength" : 576,
            "byteOffset" : 136676
        },
        {
            "buffer" : 0,
            "byteLength" : 864,
            "byteOffset" : 137252
        },
        {
            "buffer" : 0,
            "byteLength" : 864,
            "byteOffset" : 138116
        },
        {
            "buffer" : 0,
            "byteLength" : 576,
            "byteOffset" : 138980
        },
        {
            "buffer" : 0,
            "byteLength" : 864,
            "byteOffset" : 139556
        },
        {
            "buffer" : 0,
            "byteLength" : 864,
            "byteOffset" : 140420
        },
        {
            "buffer" : 0,
            "byteLength" : 576,
            "byteOffset" : 141284
        }
    ],
    "samplers" : [
        {
            "magFilter" : 9729,
            "minFilter" : 9987
        }
    ],
    "buffers" : [
        {
            "byteLength" : 141860,
            "uri" : "tower.bin"
        }
    ]
}
