{
    "asset" : {
        "generator" : "Khronos glTF Blender I/O v1.7.33",
        "version" : "2.0"
    },
    "scene" : 0,
    "scenes" : [
        {
            "name" : "Scene",
            "nodes" : [
                1,
                7
            ]
        }
    ],
    "nodes" : [
        {
            "camera" : 0,
            "name" : "Camera",
            "rotation" : [
                -0.7071067690849304,
                0,
                0,
                0.7071067690849304
            ]
        },
        {
            "children" : [
                0
            ],
            "name" : "Camera",
            "rotation" : [
                0.483536034822464,
                0.33687159419059753,
                -0.20870360732078552,
                0.7804827094078064
            ],
            "translation" : [
                7.358891487121582,
                4.958309173583984,
                6.925790786743164
            ]
        },
        {
            "mesh" : 0,
            "name" : "Cube.002",
            "rotation" : [
                0.7071066498756409,
                0,
                0,
                0.70710688829422
            ],
            "scale" : [
                0.0336175300180912,
                0.14969375729560852,
                0.012478386983275414
            ],
            "translation" : [
                0,
                2.3124887943267822,
                1.0499131679534912
            ]
        },
        {
            "mesh" : 1,
            "name" : "Cube.003",
            "scale" : [
                0.0336175300180912,
                0.08263439685106277,
                0.023616144433617592
            ],
            "translation" : [
                0,
                2.350431442260742,
                0.013374563306570053
            ]
        },
        {
            "mesh" : 2,
            "name" : "Cube.004",
            "scale" : [
                0.0336175300180912,
                0.07825089991092682,
                0.023616144433617592
            ],
            "translation" : [
                0,
                2.35310959815979,
                -0.7460104823112488
            ]
        },
        {
            "mesh" : 3,
            "name" : "Cube.006",
            "rotation" : [
                0,
                -0.7071066498756409,
                0.70710688829422,
                1.9598537903675606e-07
            ],
            "scale" : [
                0.0336175300180912,
                0.14969375729560852,
                0.012478386983275414
            ],
            "translation" : [
                0,
                2.3124887943267822,
                -1.0499131679534912
            ]
        },
        {
            "mesh" : 4,
            "name" : "Text",
            "rotation" : [
                0.5000000596046448,
                0.5000001192092896,
                -0.5000000596046448,
                0.4999997913837433
            ],
            "scale" : [
                1.7933062314987183,
                4.075557708740234,
                1.414955496788025
            ],
            "translation" : [
                0,
                2.8213839530944824,
                0
            ]
        },
        {
            "children" : [
                2,
                3,
                4,
                5,
                6
            ],
            "mesh" : 5,
            "name" : "Cube",
            "scale" : [
                0.41350871324539185,
                1.1140174865722656,
                0.5886286497116089
            ]
        }
    ],
    "cameras" : [
        {
            "name" : "Camera",
            "perspective" : {
                "aspectRatio" : 1.7777777777777777,
                "yfov" : 0.39959652046304894,
                "zfar" : 100,
                "znear" : 0.10000000149011612
            },
            "type" : "perspective"
        }
    ],
    "materials" : [
        {
            "doubleSided" : true,
            "name" : "Material.003",
            "pbrMetallicRoughness" : {
                "baseColorTexture" : {
                    "index" : 0
                },
                "metallicFactor" : 0,
                "roughnessFactor" : 0.5
            }
        },
        {
            "doubleSided" : true,
            "name" : "Material.001",
            "pbrMetallicRoughness" : {
                "baseColorTexture" : {
                    "index" : 1
                },
                "metallicFactor" : 0,
                "roughnessFactor" : 0.5
            }
        },
        {
            "doubleSided" : true,
            "name" : "Material.002",
            "pbrMetallicRoughness" : {
                "baseColorTexture" : {
                    "index" : 2
                },
                "metallicFactor" : 0,
                "roughnessFactor" : 0.5
            }
        },
        {
            "doubleSided" : true,
            "name" : "Material.004",
            "pbrMetallicRoughness" : {
                "baseColorTexture" : {
                    "index" : 3
                },
                "metallicFactor" : 0,
                "roughnessFactor" : 0.5
            }
        },
        {
            "doubleSided" : true,
            "name" : "Material.005",
            "pbrMetallicRoughness" : {
                "baseColorTexture" : {
                    "index" : 4
                },
                "metallicFactor" : 0,
                "roughnessFactor" : 0.5
            }
        }
    ],
    "meshes" : [
        {
            "name" : "Cube.003",
            "primitives" : [
                {
                    "attributes" : {
                        "POSITION" : 0,
                        "NORMAL" : 1,
                        "TEXCOORD_0" : 2
                    },
                    "indices" : 3,
                    "material" : 0
                }
            ]
        },
        {
            "name" : "Cube.004",
            "primitives" : [
                {
                    "attributes" : {
                        "POSITION" : 4,
                        "NORMAL" : 5,
                        "TEXCOORD_0" : 6
                    },
                    "indices" : 7,
                    "material" : 0
                }
            ]
        },
        {
            "name" : "Cube.005",
            "primitives" : [
                {
                    "attributes" : {
                        "POSITION" : 8,
                        "NORMAL" : 9,
                        "TEXCOORD_0" : 10
                    },
                    "indices" : 7,
                    "material" : 0
                }
            ]
        },
        {
            "name" : "Cube.007",
            "primitives" : [
                {
                    "attributes" : {
                        "POSITION" : 11,
                        "NORMAL" : 12,
                        "TEXCOORD_0" : 13
                    },
                    "indices" : 14,
                    "material" : 0
                }
            ]
        },
        {
            "name" : "Text.001",
            "primitives" : [
                {
                    "attributes" : {
                        "POSITION" : 15,
                        "NORMAL" : 16,
                        "TEXCOORD_0" : 17
                    },
                    "indices" : 18,
                    "material" : 1
                },
                {
                    "attributes" : {
                        "POSITION" : 19,
                        "NORMAL" : 20,
                        "TEXCOORD_0" : 21
                    },
                    "indices" : 22,
                    "material" : 2
                }
            ]
        },
        {
            "name" : "Cube.001",
            "primitives" : [
                {
                    "attributes" : {
                        "POSITION" : 23,
                        "NORMAL" : 24,
                        "TEXCOORD_0" : 25
                    },
                    "indices" : 26,
                    "material" : 3
                },
                {
                    "attributes" : {
                        "POSITION" : 27,
                        "NORMAL" : 28,
                        "TEXCOORD_0" : 29
                    },
                    "indices" : 30,
                    "material" : 4
                }
            ]
        }
    ],
    "textures" : [
        {
            "sampler" : 0,
            "source" : 0
        },
        {
            "sampler" : 0,
            "source" : 1
        },
        {
            "sampler" : 0,
            "source" : 2
        },
        {
            "sampler" : 0,
            "source" : 3
        },
        {
            "sampler" : 0,
            "source" : 4
        }
    ],
    "images" : [
        {
            "mimeType" : "image/png",
            "name" : "Untitled",
            "uri" : "Untitled.png"
        },
        {
            "mimeType" : "image/png",
            "name" : "Untitled",
            "uri" : "Untitled-1.png"
        },
        {
            "mimeType" : "image/png",
            "name" : "Untitled",
            "uri" : "Untitled-2.png"
        },
        {
            "mimeType" : "image/png",
            "name" : "Untitled",
            "uri" : "Untitled-3.png"
        },
        {
            "mimeType" : "image/png",
            "name" : "Untitled",
            "uri" : "Untitled-4.png"
        }
    ],
    "accessors" : [
        {
            "bufferView" : 0,
            "componentType" : 5126,
            "count" : 48,
            "max" : [
                1,
                2.5051724910736084,
                1.0000025033950806
            ],
            "min" : [
                -1,
                -1,
                -9.284208297729492
            ],
            "type" : "VEC3"
        },
        {
            "bufferView" : 1,
            "componentType" : 5126,
            "count" : 48,
            "type" : "VEC3"
        },
        {
            "bufferView" : 2,
            "componentType" : 5126,
            "count" : 48,
            "type" : "VEC2"
        },
        {
            "bufferView" : 3,
            "componentType" : 5123,
            "count" : 84,
            "type" : "SCALAR"
        },
        {
            "bufferView" : 4,
            "componentType" : 5126,
            "count" : 24,
            "max" : [
                1,
                0.9428170323371887,
                1
            ],
            "min" : [
                -1,
                -0.3069723844528198,
                -1
            ],
            "type" : "VEC3"
        },
        {
            "bufferView" : 5,
            "componentType" : 5126,
            "count" : 24,
            "type" : "VEC3"
        },
        {
            "bufferView" : 6,
            "componentType" : 5126,
            "count" : 24,
            "type" : "VEC2"
        },
        {
            "bufferView" : 7,
            "componentType" : 5123,
            "count" : 36,
            "type" : "SCALAR"
        },
        {
            "bufferView" : 8,
            "componentType" : 5126,
            "count" : 24,
            "max" : [
                1,
                0.9614090323448181,
                1
            ],
            "min" : [
                -1,
                -0.3583917021751404,
                -1
            ],
            "type" : "VEC3"
        },
        {
            "bufferView" : 9,
            "componentType" : 5126,
            "count" : 24,
            "type" : "VEC3"
        },
        {
            "bufferView" : 10,
            "componentType" : 5126,
            "count" : 24,
            "type" : "VEC2"
        },
        {
            "bufferView" : 11,
            "componentType" : 5126,
            "count" : 52,
            "max" : [
                1,
                2.538865804672241,
                1
            ],
            "min" : [
                -1.000004768371582,
                -1,
                -9.284212112426758
            ],
            "type" : "VEC3"
        },
        {
            "bufferView" : 12,
            "componentType" : 5126,
            "count" : 52,
            "type" : "VEC3"
        },
        {
            "bufferView" : 13,
            "componentType" : 5126,
            "count" : 52,
            "type" : "VEC2"
        },
        {
            "bufferView" : 14,
            "componentType" : 5123,
            "count" : 84,
            "type" : "SCALAR"
        },
        {
            "bufferView" : 15,
            "componentType" : 5126,
            "count" : 84,
            "max" : [
                0.8403794765472412,
                0.07100000232458115,
                0.27777785062789917
            ],
            "min" : [
                -0.8358261585235596,
                -0.07100000232458115,
                -0.2777777314186096
            ],
            "type" : "VEC3"
        },
        {
            "bufferView" : 16,
            "componentType" : 5126,
            "count" : 84,
            "type" : "VEC3"
        },
        {
            "bufferView" : 17,
            "componentType" : 5126,
            "count" : 84,
            "type" : "VEC2"
        },
        {
            "bufferView" : 18,
            "componentType" : 5123,
            "count" : 144,
            "type" : "SCALAR"
        },
        {
            "bufferView" : 19,
            "componentType" : 5126,
            "count" : 112,
            "max" : [
                0.8403794765472412,
                0.07100000232458115,
                0.27777785062789917
            ],
            "min" : [
                -0.8358261585235596,
                -0.07100000232458115,
                -0.2777777314186096
            ],
            "type" : "VEC3"
        },
        {
            "bufferView" : 20,
            "componentType" : 5126,
            "count" : 112,
            "type" : "VEC3"
        },
        {
            "bufferView" : 21,
            "componentType" : 5126,
            "count" : 112,
            "type" : "VEC2"
        },
        {
            "bufferView" : 22,
            "componentType" : 5123,
            "count" : 168,
            "type" : "SCALAR"
        },
        {
            "bufferView" : 23,
            "componentType" : 5126,
            "count" : 294,
            "max" : [
                2.1461966037750244,
                2.329965353012085,
                2.3585057258605957
            ],
            "min" : [
                -0.8452521562576294,
                0.050400711596012115,
                -0.925467312335968
            ],
            "type" : "VEC3"
        },
        {
            "bufferView" : 24,
            "componentType" : 5126,
            "count" : 294,
            "type" : "VEC3"
        },
        {
            "bufferView" : 25,
            "componentType" : 5126,
            "count" : 294,
            "type" : "VEC2"
        },
        {
            "bufferView" : 26,
            "componentType" : 5123,
            "count" : 438,
            "type" : "SCALAR"
        },
        {
            "bufferView" : 27,
            "componentType" : 5126,
            "count" : 3493,
            "max" : [
                2.1639935970306396,
                2.3445305824279785,
                2.3948421478271484
            ],
            "min" : [
                -1.7258331775665283,
                0.003929018974304199,
                -1.618064045906067
            ],
            "type" : "VEC3"
        },
        {
            "bufferView" : 28,
            "componentType" : 5126,
            "count" : 3493,
            "type" : "VEC3"
        },
        {
            "bufferView" : 29,
            "componentType" : 5126,
            "count" : 3493,
            "type" : "VEC2"
        },
        {
            "bufferView" : 30,
            "componentType" : 5123,
            "count" : 6081,
            "type" : "SCALAR"
        }
    ],
    "bufferViews" : [
        {
            "buffer" : 0,
            "byteLength" : 576,
            "byteOffset" : 0
        },
        {
            "buffer" : 0,
            "byteLength" : 576,
            "byteOffset" : 576
        },
        {
            "buffer" : 0,
            "byteLength" : 384,
            "byteOffset" : 1152
        },
        {
            "buffer" : 0,
            "byteLength" : 168,
            "byteOffset" : 1536
        },
        {
            "buffer" : 0,
            "byteLength" : 288,
            "byteOffset" : 1704
        },
        {
            "buffer" : 0,
            "byteLength" : 288,
            "byteOffset" : 1992
        },
        {
            "buffer" : 0,
            "byteLength" : 192,
            "byteOffset" : 2280
        },
        {
            "buffer" : 0,
            "byteLength" : 72,
            "byteOffset" : 2472
        },
        {
            "buffer" : 0,
            "byteLength" : 288,
            "byteOffset" : 2544
        },
        {
            "buffer" : 0,
            "byteLength" : 288,
            "byteOffset" : 2832
        },
        {
            "buffer" : 0,
            "byteLength" : 192,
            "byteOffset" : 3120
        },
        {
            "buffer" : 0,
            "byteLength" : 624,
            "byteOffset" : 3312
        },
        {
            "buffer" : 0,
            "byteLength" : 624,
            "byteOffset" : 3936
        },
        {
            "buffer" : 0,
            "byteLength" : 416,
            "byteOffset" : 4560
        },
        {
            "buffer" : 0,
            "byteLength" : 168,
            "byteOffset" : 4976
        },
        {
            "buffer" : 0,
            "byteLength" : 1008,
            "byteOffset" : 5144
        },
        {
            "buffer" : 0,
            "byteLength" : 1008,
            "byteOffset" : 6152
        },
        {
            "buffer" : 0,
            "byteLength" : 672,
            "byteOffset" : 7160
        },
        {
            "buffer" : 0,
            "byteLength" : 288,
            "byteOffset" : 7832
        },
        {
            "buffer" : 0,
            "byteLength" : 1344,
            "byteOffset" : 8120
        },
        {
            "buffer" : 0,
            "byteLength" : 1344,
            "byteOffset" : 9464
        },
        {
            "buffer" : 0,
            "byteLength" : 896,
            "byteOffset" : 10808
        },
        {
            "buffer" : 0,
            "byteLength" : 336,
            "byteOffset" : 11704
        },
        {
            "buffer" : 0,
            "byteLength" : 3528,
            "byteOffset" : 12040
        },
        {
            "buffer" : 0,
            "byteLength" : 3528,
            "byteOffset" : 15568
        },
        {
            "buffer" : 0,
            "byteLength" : 2352,
            "byteOffset" : 19096
        },
        {
            "buffer" : 0,
            "byteLength" : 876,
            "byteOffset" : 21448
        },
        {
            "buffer" : 0,
            "byteLength" : 41916,
            "byteOffset" : 22324
        },
        {
            "buffer" : 0,
            "byteLength" : 41916,
            "byteOffset" : 64240
        },
        {
            "buffer" : 0,
            "byteLength" : 27944,
            "byteOffset" : 106156
        },
        {
            "buffer" : 0,
            "byteLength" : 12162,
            "byteOffset" : 134100
        }
    ],
    "samplers" : [
        {
            "magFilter" : 9729,
            "minFilter" : 9987
        }
    ],
    "buffers" : [
        {
            "byteLength" : 146264,
            "uri" : "fri.bin"
        }
    ]
}
